<?xml version="1.0" encoding="UTF-8"?>
<svg version="1.1" xmlns="http://www.w3.org/2000/svg" width="569" height="569">
<path d="M0 0 C1.54907227 1.21850586 1.54907227 1.21850586 3 3 C2.87084961 5.09594727 2.87084961 5.09594727 2.21484375 7.50390625 C-3.36436688 31.25319068 3.62346698 53.78836008 16 74 C22.74434306 84.65207894 30.93038135 94.34069071 39 104 C39.50821289 104.60875977 40.01642578 105.21751953 40.54003906 105.84472656 C47.1671027 113.74971257 54.06144606 121.36800715 61.109375 128.8984375 C64.49794552 132.52286638 67.77001754 136.23394903 71 140 C71.91112471 141.04586365 72.82261813 142.09140615 73.734375 143.13671875 C96.63595011 169.48774897 116.98008535 198.83102492 123 234 C123.30357422 235.67255859 123.30357422 235.67255859 123.61328125 237.37890625 C125.98743804 252.35062968 125.57500445 267.30907371 123.6875 282.3125 C123.56995361 283.26060547 123.45240723 284.20871094 123.33129883 285.18554688 C122.54481714 290.82610308 121.20047179 295.76008753 119 301 C118.56300781 302.16660156 118.12601562 303.33320313 117.67578125 304.53515625 C112.42028963 318.13317611 106.05594713 330.50393049 97 342 C95.93458984 343.37091797 95.93458984 343.37091797 94.84765625 344.76953125 C72.4515069 372.91231997 40.83802179 391.11357261 5.125 395.75 C-28.63409494 398.13231135 -61.43517729 391.47790267 -89 371 C-89.81082031 370.41089844 -90.62164062 369.82179688 -91.45703125 369.21484375 C-120.42946503 347.16958315 -139.45930753 314.55852164 -144.6640625 278.60986328 C-149.66433782 239.76324763 -138.54065489 200.60667488 -115.03515625 169.390625 C-110.33124435 163.39197299 -105.46135709 157.32538969 -100 152 C-99.34 152 -98.68 152 -98 152 C-96.87214467 159.39371827 -96.87214467 159.39371827 -97.484375 162.296875 C-99.98932619 175.42889186 -95.76212911 189.75635929 -88.6796875 200.75 C-83.11177081 208.20841863 -75.91431328 212.42079202 -67 215 C-63.39994585 215.22105596 -60.45929648 214.92770776 -57 214 C-57.28336229 205.6248412 -59.20226333 198.74324522 -62.3125 191 C-63.10075722 188.9793604 -63.88852035 186.95852798 -64.67578125 184.9375 C-65.25743042 183.45660889 -65.25743042 183.45660889 -65.85083008 181.94580078 C-79.44870105 147.0887982 -78.34787833 111.39251651 -63.78125 76.87109375 C-49.84979878 46.04695541 -28.90558025 18.19980979 0 0 Z " fill="#C12F23" transform="translate(288,144)"/>
<path d="M0 0 C0.33 0 0.66 0 1 0 C1.0825 1.2375 1.165 2.475 1.25 3.75 C3.50422888 22.18331467 14.99476926 37.77310041 27.796875 50.62890625 C30 53 30 53 30 55 C30.59167969 55.25265625 31.18335938 55.5053125 31.79296875 55.765625 C34.26013061 57.14548898 35.53711829 58.56361107 37.3125 60.75 C39.5663924 63.42199184 41.79460027 65.78704382 44.5 68 C47.69501838 70.64366565 50.32946213 73.53634608 53.00390625 76.69921875 C54.44861827 78.36445433 55.94257275 79.98738603 57.46484375 81.58203125 C72.89186953 97.76159487 84.98174905 116.36621154 91 138 C91.3196875 139.10988281 91.639375 140.21976563 91.96875 141.36328125 C93.99524989 149.64753775 94.27583038 157.68676162 94.3125 166.1875 C94.31805908 167.26813721 94.32361816 168.34877441 94.3293457 169.4621582 C94.06722697 198.87994522 81.1219038 222.50339518 60.921875 243.12109375 C52.3486689 251.26563955 41.24410166 257.39142784 30 261 C29.07574219 261.29777344 28.15148437 261.59554688 27.19921875 261.90234375 C7.06141781 267.45495214 -14.06131494 264.04390734 -32.25 254.25 C-53.00466859 242.11047686 -66.83948905 223.24060054 -73 200 C-76.87140459 183.79968807 -76.36690338 167.47785244 -70 152 C-68.45703125 149.53515625 -68.45703125 149.53515625 -67 148 C-66.34 148 -65.68 148 -65 148 C-64.62875 148.969375 -64.2575 149.93875 -63.875 150.9375 C-59.95187358 159.95156721 -54.59958487 166.80418112 -45.64453125 171.140625 C-36.28707371 174.18145315 -26.90846953 171.86578462 -18.390625 167.734375 C-9.84200968 162.95294609 -4.45713945 155.93370245 1 148 C1.43948975 147.36860107 1.87897949 146.73720215 2.33178711 146.08666992 C10.91812099 133.15367418 13.45654823 115.10159055 10.61621094 99.953125 C8.70903639 91.9899745 5.04967377 84.93385067 1.09716797 77.84375 C-8.81625257 59.84146485 -15.20991527 38.4603913 -9.375 18.0625 C-7.26307961 12.1052192 -4.55162036 4.55162036 0 0 Z " fill="#F78A1D" transform="translate(272,262)"/>
<path d="M0 0 C0.99 0 1.98 0 3 0 C15.68238987 14.13891083 16.8416744 37.05552177 16.21777344 54.83154297 C15.07181935 71.50440411 7.1278753 86.58680306 -5 98 C-11.7669748 103.68384621 -18.82069344 107.71298895 -27 111 C-27.85980469 111.36609375 -28.71960938 111.7321875 -29.60546875 112.109375 C-32.94591136 113.35182348 -35.45978668 113.37265403 -39 113 C-46.51315753 109.08689712 -52.60014702 102.6265942 -56.109375 94.9296875 C-58.60926535 86.70636397 -58.1242565 78.42504776 -54.5625 70.625 C-49.25986242 61.40997552 -41.34268934 55.40755439 -33.09057617 49.00439453 C-18.8839071 37.94171389 -2.62120563 18.52554787 0 0 Z " fill="#E46019" transform="translate(311,410)"/>
<path d="M0 0 C0 3.65253824 -1.127067 4.51243805 -3.60717773 7.02368164 C-4.12868408 7.5314917 -4.65019043 8.03930176 -5.1875 8.5625 C-5.72125244 9.08900146 -6.25500488 9.61550293 -6.80493164 10.15795898 C-13.69421732 16.81690076 -21.46497481 23.59147394 -30 28 C-30.66 27.67 -31.32 27.34 -32 27 C-30.63016497 23.83884224 -30.0109362 23.0072908 -27 21 C-26.175 20.278125 -25.35 19.55625 -24.5 18.8125 C-23.675 18.214375 -22.85 17.61625 -22 17 C-21.01 17.33 -20.02 17.66 -19 18 C-18.9175 17.401875 -18.835 16.80375 -18.75 16.1875 C-17.77705573 13.34974589 -16.55550687 12.50323933 -14 11 C-13.01 11 -12.02 11 -11 11 C-10.87625 10.38125 -10.7525 9.7625 -10.625 9.125 C-10 7 -10 7 -8 5 C-7.01 5 -6.02 5 -5 5 C-4.67 3.68 -4.34 2.36 -4 1 C-3.01 1 -2.02 1 -1 1 C-0.67 0.67 -0.34 0.34 0 0 Z " fill="#80221A" transform="translate(378,492)"/>
<path d="M0 0 C1.55078125 1.17578125 1.55078125 1.17578125 3 3 C2.85546875 5.48046875 2.85546875 5.48046875 2.1875 8.1875 C1.97480469 9.08855469 1.76210938 9.98960937 1.54296875 10.91796875 C1.27419922 11.94857422 1.27419922 11.94857422 1 13 C0.67 13 0.34 13 0 13 C-0.33 10.36 -0.66 7.72 -1 5 C-3.15811388 5.94729537 -3.15811388 5.94729537 -5 8 C-6.32 8 -7.64 8 -9 8 C-9.2475 8.61875 -9.495 9.2375 -9.75 9.875 C-11 12 -11 12 -12.9375 12.9375 C-15.72905902 14.37557586 -16.51017533 16.29122788 -18 19 C-20 21 -20 21 -22.4375 21.9375 C-24.97065221 22.9878314 -26.23145796 23.95221448 -28 26 C-28.66 25.67 -29.32 25.34 -30 25 C-20.83676174 15.47897803 -11.21137511 7.05901396 0 0 Z " fill="#82271C" transform="translate(288,144)"/>
<path d="M0 0 C0.33 0 0.66 0 1 0 C1.96849123 9.26344942 2.12190023 18.44321619 2.0625 27.75 C2.05746857 29.14062337 2.0529086 30.53124852 2.04882812 31.921875 C2.03716347 35.28129705 2.02079614 38.64062419 2 42 C1.01 42.495 1.01 42.495 0 43 C-1.92003585 28.06829259 -1.92003585 14.93170741 0 0 Z " fill="#95271D" transform="translate(214,255)"/>
<path d="M0 0 C0.99 0.33 1.98 0.66 3 1 C1.68 1.99 0.36 2.98 -1 4 C-0.67 2.68 -0.34 1.36 0 0 Z M-9 8 C-6.875 8.375 -6.875 8.375 -5 9 C-6.78572252 10.83947337 -8.57802449 12.67157741 -10.375 14.5 C-10.88289063 15.02464844 -11.39078125 15.54929688 -11.9140625 16.08984375 C-13.23832604 17.43153181 -14.61605865 18.71995815 -16 20 C-16.66 20 -17.32 20 -18 20 C-18.2475 20.61875 -18.495 21.2375 -18.75 21.875 C-20.21956837 24.37326623 -21.28564404 25.06694014 -24 26 C-24.66 25.67 -25.32 25.34 -26 25 C-24.4466384 23.0545277 -22.88308765 21.11898865 -21.3125 19.1875 C-20.87744141 18.64029297 -20.44238281 18.09308594 -19.99414062 17.52929688 C-17.28154163 14.2138981 -14.75598414 12.02835941 -11 10 C-10.34 9.34 -9.68 8.68 -9 8 Z " fill="#C42C20" transform="translate(273,157)"/>
<path d="M0 0 C0.66 0.33 1.32 0.66 2 1 C2.6875 4 2.6875 4 3 7 C2.67 7.33 2.34 7.66 2 8 C1.91241997 9.99964982 1.89303424 12.0023611 1.90234375 14.00390625 C1.90556641 15.21884766 1.90878906 16.43378906 1.91210938 17.68554688 C1.92048828 18.96494141 1.92886719 20.24433594 1.9375 21.5625 C1.94201172 22.84576172 1.94652344 24.12902344 1.95117188 25.45117188 C1.96300455 28.63416022 1.97948932 31.81705762 2 35 C1.67 35 1.34 35 1 35 C0.67 31.7 0.34 28.4 0 25 C-0.66 25 -1.32 25 -2 25 C-1.34 16.75 -0.68 8.5 0 0 Z " fill="#B32922" transform="translate(144,379)"/>
<path d="M0 0 C0.680625 0.70125 1.36125 1.4025 2.0625 2.125 C3.0367486 3.08833265 4.01636797 4.04625047 5 5 C5.51949219 5.50402344 6.03898438 6.00804687 6.57421875 6.52734375 C10.9546412 10.5401783 15.4746099 12.87003103 21 15 C16.02373397 16.65875534 11.7030073 15.06732459 7 13 C3.59552365 10.32819431 0.63905406 7.43402837 -2 4 C-2 3.34 -2 2.68 -2 2 C-1.34 2 -0.68 2 0 2 C0 1.34 0 0.68 0 0 Z " fill="#91221A" transform="translate(197,343)"/>
<path d="M0 0 C5.88744352 4.76006072 11.40957406 9.95229598 16 16 C16 16.99 16 17.98 16 19 C15.34 18.34 14.68 17.68 14 17 C13.195625 16.71125 12.39125 16.4225 11.5625 16.125 C8.63498941 14.83975145 7.5815779 13.74695108 6 11 C6 10.01 6 9.02 6 8 C4.8553125 7.5978125 4.8553125 7.5978125 3.6875 7.1875 C1.12619116 6.05575888 -0.19692938 5.08776599 -2 3 C-1 1 -1 1 0 0 Z " fill="#74221A" transform="translate(344,269)"/>
<path d="M0 0 C4.64747695 4.23360145 7.89925748 9.05784839 11.3125 14.3125 C12.13717773 15.56643555 12.13717773 15.56643555 12.97851562 16.84570312 C14.32435457 18.89371891 15.66464405 20.9451401 17 23 C16.67 23.66 16.34 24.32 16 25 C15.62488281 24.38511719 15.24976563 23.77023437 14.86328125 23.13671875 C11.94287256 18.52438563 9.82864276 15.68257931 5 13 C4.31867549 11.33927151 3.65257873 9.672233 3 8 C0.48593689 5.70422757 0.48593689 5.70422757 -2 4 C-1.34 2.68 -0.68 1.36 0 0 Z " fill="#601C14" transform="translate(374,303)"/>
<path d="M0 0 C0.66 0.33 1.32 0.66 2 1 C2.598125 1.12375 3.19625 1.2475 3.8125 1.375 C6.56263324 2.16075235 8.65656462 3.37261432 11 5 C11 5.66 11 6.32 11 7 C11.65226563 7.12117187 12.30453125 7.24234375 12.9765625 7.3671875 C17.78646342 8.28943989 22.39025465 9.30167277 27 11 C23.58631139 12.16956792 21.61158147 11.8243633 18.2265625 10.671875 C17.3190625 10.36636719 16.4115625 10.06085937 15.4765625 9.74609375 C14.53554687 9.41738281 13.59453125 9.08867188 12.625 8.75 C11.69171875 8.43675781 10.7584375 8.12351562 9.796875 7.80078125 C5.00100135 6.16366291 0.45716995 4.41492151 -4 2 C-2.125 0.9375 -2.125 0.9375 0 0 Z " fill="#832E24" transform="translate(223,525)"/>
<path d="M0 0 C3.41640563 3.18916764 6.10476805 6.73251432 8.75 10.5625 C9.16121094 11.13935547 9.57242187 11.71621094 9.99609375 12.31054688 C13 16.63677066 13 16.63677066 13 20 C11.5344405 18.92646259 10.07779848 17.8407446 8.625 16.75 C7.81289063 16.14671875 7.00078125 15.5434375 6.1640625 14.921875 C2.57922333 11.73822722 1.80670751 8.60975722 1 4 C0.67516582 2.66457061 0.3449145 1.33038449 0 0 Z " fill="#6A1E17" transform="translate(301,215)"/>
<path d="M0 0 C1 3 1 3 -0.43359375 6.35546875 C-1.09148807 7.6380304 -1.75989743 8.91524057 -2.4375 10.1875 C-2.77587891 10.84169922 -3.11425781 11.49589844 -3.46289062 12.16992188 C-4.29969098 13.78459299 -5.14869746 15.39292763 -6 17 C-7.45806895 14.67239175 -8.0797682 13.50578295 -7.64453125 10.74609375 C-7.36996094 9.98425781 -7.09539062 9.22242188 -6.8125 8.4375 C-6.55082031 7.67308594 -6.28914063 6.90867187 -6.01953125 6.12109375 C-4.57981469 3.12582136 -2.96144061 1.4807203 0 0 Z " fill="#761E17" transform="translate(402,453)"/>
<path d="M0 0 C3.34218632 -0.37992882 4.66954796 -0.23536171 7.45703125 1.75 C8.23433594 2.4925 9.01164063 3.235 9.8125 4 C10.60269531 4.7425 11.39289063 5.485 12.20703125 6.25 C13.09455078 7.11625 13.09455078 7.11625 14 8 C13.67 9.32 13.34 10.64 13 12 C11.39097942 10.75625426 9.78796893 9.50473101 8.1875 8.25 C7.29417969 7.55390625 6.40085938 6.8578125 5.48046875 6.140625 C3.25694367 4.22174036 1.6399079 2.41900036 0 0 Z " fill="#8F2A1D" transform="translate(186,503)"/>
<path d="M0 0 C3.55685722 3.50558721 6.96283047 7.10553239 10.3125 10.8125 C11.19550781 11.78832031 12.07851563 12.76414063 12.98828125 13.76953125 C13.65214844 14.50558594 14.31601562 15.24164063 15 16 C14.67 16.66 14.34 17.32 14 18 C11.13275314 17.42655063 10.1385485 17.1385485 8 15 C7.731875 14.030625 7.46375 13.06125 7.1875 12.0625 C5.76994018 8.40668784 4.4932595 7.61227361 1 6 C0.67 6 0.34 6 0 6 C0 4.02 0 2.04 0 0 Z " fill="#551D16" transform="translate(319,240)"/>
<path d="M0 0 C-3.45535914 2.30357276 -6.95083096 3.40886113 -10.875 4.625 C-11.58269531 4.85445312 -12.29039062 5.08390625 -13.01953125 5.3203125 C-16.78738163 6.49908133 -20.00253855 7.29785007 -24 7 C-16.28571429 3 -16.28571429 3 -12 3 C-12 2.34 -12 1.68 -12 1 C-8.00439392 -1.83022097 -4.57262677 -0.76210446 0 0 Z " fill="#802A20" transform="translate(327,530)"/>
<path d="M0 0 C3.68000434 2.75839204 6.49505889 5.62075382 9.3125 9.25 C10.00988281 10.14203125 10.70726562 11.0340625 11.42578125 11.953125 C11.94527344 12.62859375 12.46476562 13.3040625 13 14 C11 15 11 15 8.625 14.375 C5.45265869 12.71329741 3.91058201 11.01284086 2 8 C2.33 7.01 2.66 6.02 3 5 C2.2575 4.319375 2.2575 4.319375 1.5 3.625 C0 2 0 2 0 0 Z " fill="#671A13" transform="translate(361,288)"/>
<path d="M0 0 C1.1055189 0.93590504 2.20935453 1.87379858 3.3125 2.8125 C3.92738281 3.33457031 4.54226563 3.85664063 5.17578125 4.39453125 C6.85424679 5.87172469 8.43882034 7.40039131 10 9 C9.67 9.66 9.34 10.32 9 11 C4.73327616 10.52591957 2.7544952 8.11692878 0 5 C-1.3125 2.6875 -1.3125 2.6875 -2 1 C-1.34 0.67 -0.68 0.34 0 0 Z " fill="#801E16" transform="translate(334,258)"/>
<path d="M0 0 C1.65 0 3.3 0 5 0 C3.44298069 4.67105792 0.91552627 8.08705685 -2 12 C-3.1171875 10.265625 -3.1171875 10.265625 -4 8 C-3.3203125 5.859375 -3.3203125 5.859375 -2.125 3.75 C-1.73570312 3.04359375 -1.34640625 2.3371875 -0.9453125 1.609375 C-0.63335937 1.07828125 -0.32140625 0.5471875 0 0 Z " fill="#982119" transform="translate(390,470)"/>
<path d="M0 0 C0.66 0 1.32 0 2 0 C3.12720157 7.38943249 3.12720157 7.38943249 2.53125 10.25 C1.81846326 13.93971961 1.89404541 17.57206244 1.9375 21.3125 C1.94201172 22.05306641 1.94652344 22.79363281 1.95117188 23.55664062 C1.96287825 25.37112899 1.98081102 27.18557534 2 29 C1.67 29 1.34 29 1 29 C-0.09857724 22.8323971 -0.11539104 16.81584877 -0.0625 10.5625 C-0.05798828 9.54478516 -0.05347656 8.52707031 -0.04882812 7.47851562 C-0.03712437 4.98561491 -0.02072848 2.49283926 0 0 Z " fill="#421511" transform="translate(188,296)"/>
<path d="M0 0 C4.10958767 1.45044271 7.43258745 3.51110752 11 6 C9.265625 7.1484375 9.265625 7.1484375 7 8 C4.859375 7.1015625 4.859375 7.1015625 2.75 5.625 C1.69039062 4.90183594 1.69039062 4.90183594 0.609375 4.1640625 C0.07828125 3.77992188 -0.4528125 3.39578125 -1 3 C-0.67 2.01 -0.34 1.02 0 0 Z " fill="#9A291E" transform="translate(206,516)"/>
<path d="M0 0 C11.52164009 -0.55353075 11.52164009 -0.55353075 17 3 C17 3.33 17 3.66 17 4 C11.54513151 4.19139889 7.21444984 3.87720194 2 2 C1.34 1.34 0.68 0.68 0 0 Z " fill="#A53427" transform="translate(248,535)"/>
<path d="M0 0 C0.33 1.32 0.66 2.64 1 4 C-1.64 5.98 -4.28 7.96 -7 10 C-7.66 9.67 -8.32 9.34 -9 9 C-7.63016497 5.83884224 -7.0109362 5.0072908 -4 3 C-2.66209359 2.00612666 -1.32781878 1.0073108 0 0 Z " fill="#7C241C" transform="translate(355,510)"/>
<path d="M0 0 C2.96045858 0.32004958 4.57511551 0.59028996 6.75 2.6875 C8.24315168 5.4498306 8.64737076 7.89686272 9 11 C5.36440339 7.56638098 2.63886654 4.2026393 0 0 Z " fill="#8A2820" transform="translate(169,484)"/>
<path d="M0 0 C0.66 0.33 1.32 0.66 2 1 C3.4048173 5.91686055 2.56525413 9.21727905 1 14 C0.64628502 15.66246041 0.30404678 17.32774271 0 19 C-0.33 19 -0.66 19 -1 19 C-1.10655578 12.55929529 -0.96205088 6.37358711 0 0 Z " fill="#772822" transform="translate(144,379)"/>
<path d="M0 0 C0 3.95875396 -1.21313946 6.49009536 -3 10 C-4.9375 11.1875 -4.9375 11.1875 -7 12 C-8.37086915 13.29470975 -9.71340837 14.62150897 -11 16 C-9.6020749 11.93064734 -7.66821145 9.06055399 -4.9375 5.75 C-4.22464844 4.87859375 -3.51179687 4.0071875 -2.77734375 3.109375 C-1.88187356 2.04661917 -0.98267919 0.98267919 0 0 Z " fill="#76221B" transform="translate(180,305)"/>
<path d="M0 0 C0.66 0.99 1.32 1.98 2 3 C1.1322755 6.7864342 0.16634129 9.62524403 -3 12 C-3.66 12 -4.32 12 -5 12 C-3.68938409 7.76570244 -2.05643741 3.92592596 0 0 Z " fill="#A12018" transform="translate(232,205)"/>
<path d="M0 0 C0.66 0 1.32 0 2 0 C1.43179252 5.45479185 0.05362055 9.91059256 -2 15 C-2.33 15 -2.66 15 -3 15 C-3 11.37 -3 7.74 -3 4 C-2.34 3.67 -1.68 3.34 -1 3 C-0.67 2.01 -0.34 1.02 0 0 Z " fill="#561B14" transform="translate(406,438)"/>
<path d="M0 0 C1.17539996 0.92652701 2.34010577 1.86663387 3.5 2.8125 C4.1496875 3.33457031 4.799375 3.85664063 5.46875 4.39453125 C7 6 7 6 7 9 C3.48994665 7.3619751 0.54456151 5.96865509 -2 3 C-1 1 -1 1 0 0 Z " fill="#781B14" transform="translate(344,269)"/>
<path d="M0 0 C1.125 1.6875 1.125 1.6875 2 4 C1.1875 6.5 1.1875 6.5 0 9 C-0.144375 9.7425 -0.28875 10.485 -0.4375 11.25 C-0.623125 11.8275 -0.80875 12.405 -1 13 C-1.99 13.33 -2.98 13.66 -4 14 C-3.00956295 9.16371695 -2.04301154 4.52381127 0 0 Z " fill="#8B251E" transform="translate(154,346)"/>
<path d="M0 0 C1.32 0.33 2.64 0.66 4 1 C2.02 3.31 0.04 5.62 -2 8 C-3.32 7.67 -4.64 7.34 -6 7 C-4.02 4.69 -2.04 2.38 0 0 Z " fill="#93221A" transform="translate(253,175)"/>
<path d="M0 0 C0.99 0.33 1.98 0.66 3 1 C1.06730041 2.17460192 -0.87133313 3.33944472 -2.8125 4.5 C-3.89144531 5.1496875 -4.97039062 5.799375 -6.08203125 6.46875 C-9 8 -9 8 -12 8 C-12 7.34 -12 6.68 -12 6 C-10.35 5.67 -8.7 5.34 -7 5 C-6.67 4.01 -6.34 3.02 -6 2 C-4.7934375 1.7834375 -4.7934375 1.7834375 -3.5625 1.5625 C-1.07896294 1.25864751 -1.07896294 1.25864751 0 0 Z " fill="#6B2820" transform="translate(343,520)"/>
<path d="M0 0 C1.32 0 2.64 0 4 0 C2.32971708 3.94794145 -0.1795565 6.81796118 -3 10 C-3.33 10 -3.66 10 -4 10 C-4 8.02 -4 6.04 -4 4 C-3.01 4 -2.02 4 -1 4 C-0.67 2.68 -0.34 1.36 0 0 Z " fill="#6D2019" transform="translate(383,482)"/>
<path d="M0 0 C1.11196276 3.33588828 1.09809194 4.70572419 0 8 C-1.8125 9.0625 -1.8125 9.0625 -4 10 C-5.37086915 11.29470975 -6.71340837 12.62150897 -8 14 C-6.6744419 10.37723685 -5.05653045 7.36494652 -2.875 4.1875 C-2.33617187 3.39730469 -1.79734375 2.60710937 -1.2421875 1.79296875 C-0.83226562 1.20128906 -0.42234375 0.60960937 0 0 Z " fill="#6F201A" transform="translate(246,183)"/>
<path d="M0 0 C6.435 2.97 6.435 2.97 13 6 C9.70303895 7.09898702 8.59505097 6.87124444 5.3125 6.0625 C4.50425781 5.86785156 3.69601563 5.67320312 2.86328125 5.47265625 C2.24839844 5.31667969 1.63351563 5.16070312 1 5 C0.67 3.35 0.34 1.7 0 0 Z " fill="#7B241C" transform="translate(205,352)"/>
<path d="M0 0 C0.66 0 1.32 0 2 0 C1.67 2.31 1.34 4.62 1 7 C0.34 7 -0.32 7 -1 7 C-1.33 8.32 -1.66 9.64 -2 11 C-2.95465783 8.83032311 -3.14401212 7.43671207 -2.3984375 5.17578125 C-1.64129615 3.4315257 -0.82390802 1.71372869 0 0 Z " fill="#B22D21" transform="translate(407,431)"/>
<path d="M0 0 C1.55078125 1.17578125 1.55078125 1.17578125 3 3 C2.85546875 5.48046875 2.85546875 5.48046875 2.1875 8.1875 C1.97480469 9.08855469 1.76210938 9.98960937 1.54296875 10.91796875 C1.36378906 11.60503906 1.18460937 12.29210937 1 13 C0.67 13 0.34 13 0 13 C0 9.7 0 6.4 0 3 C-0.99 2.67 -1.98 2.34 -3 2 C-2.01 1.34 -1.02 0.68 0 0 Z " fill="#5C1C17" transform="translate(288,144)"/>
<path d="M0 0 C2 2 2 2 2.1953125 3.9453125 C2.13020833 5.96354167 2.06510417 7.98177083 2 10 C1.01 10 0.02 10 -1 10 C-1.02689216 8.52093108 -1.04634621 7.04172517 -1.0625 5.5625 C-1.07410156 4.73878906 -1.08570313 3.91507812 -1.09765625 3.06640625 C-1 1 -1 1 0 0 Z " fill="#AD281F" transform="translate(409,413)"/>
<path d="M0 0 C2.88437779 1.29299694 4.87219421 2.65941363 7 5 C6.67 5.66 6.34 6.32 6 7 C3.13275314 6.42655063 2.1385485 6.1385485 0 4 C0 2.68 0 1.36 0 0 Z " fill="#761D15" transform="translate(327,251)"/>
<path d="M0 0 C0.33 0.99 0.66 1.98 1 3 C-0.75 5.0625 -0.75 5.0625 -3 7 C-5.25 6.75 -5.25 6.75 -7 6 C-4.9859524 2.9789286 -3.36720387 1.39332574 0 0 Z " fill="#A72920" transform="translate(261,168)"/>
<path d="M0 0 C0.99 0.33 1.98 0.66 3 1 C1.75023244 4.65316671 1.32901247 5.78065836 -2 8 C-2.33 7.01 -2.66 6.02 -3 5 C-1.5625 2.3125 -1.5625 2.3125 0 0 Z " fill="#99251B" transform="translate(164,327)"/>
<path d="M0 0 C0.99 0 1.98 0 3 0 C3.33 2.31 3.66 4.62 4 7 C3.01 7.66 2.02 8.32 1 9 C0.67 6.03 0.34 3.06 0 0 Z " fill="#9D241B" transform="translate(215,298)"/>
<path d="M0 0 C2.3129482 2.3129482 2.49580975 3.47904875 3.125 6.625 C3.29257812 7.44226563 3.46015625 8.25953125 3.6328125 9.1015625 C3.81457031 10.04128906 3.81457031 10.04128906 4 11 C3.34 11 2.68 11 2 11 C2 9.68 2 8.36 2 7 C1.34 7 0.68 7 0 7 C0 4.69 0 2.38 0 0 Z " fill="#4D1D19" transform="translate(402,351)"/>
<path d="M0 0 C0.99 0.33 1.98 0.66 3 1 C3.33 2.98 3.66 4.96 4 7 C2.02 5.35 0.04 3.7 -2 2 C-1.34 1.34 -0.68 0.68 0 0 Z " fill="#83241C" transform="translate(180,494)"/>
<path d="M0 0 C0.66 0.33 1.32 0.66 2 1 C0.02 3.97 0.02 3.97 -2 7 C-3.0625 5.125 -3.0625 5.125 -4 3 C-3 1 -3 1 0 0 Z " fill="#691F16" transform="translate(390,475)"/>
<path d="M0 0 C0.33 0 0.66 0 1 0 C1 1.98 1 3.96 1 6 C-0.65 6.66 -2.3 7.32 -4 8 C-2.87548273 5.0280615 -1.77706209 2.66559313 0 0 Z " fill="#EB7C1F" transform="translate(272,262)"/>
<path d="M0 0 C0 0.99 0 1.98 0 3 C-2.5 5.1875 -2.5 5.1875 -5 7 C-5 5.35 -5 3.7 -5 2 C-4.360625 1.855625 -3.72125 1.71125 -3.0625 1.5625 C-1.02454854 1.18992819 -1.02454854 1.18992819 0 0 Z " fill="#5D1A14" transform="translate(378,492)"/>
<path d="M0 0 C0.33 0.66 0.66 1.32 1 2 C-0.2739589 4.03833424 -1.61061923 6.03852126 -3 8 C-3.66 8 -4.32 8 -5 8 C-3.8141763 4.62496331 -2.72426311 2.35277269 0 0 Z " fill="#C6281C" transform="translate(175,314)"/>
<path d="M0 0 C0.66 0 1.32 0 2 0 C1.67 1.65 1.34 3.3 1 5 C-0.65 5.33 -2.3 5.66 -4 6 C-1.125 1.125 -1.125 1.125 0 0 Z " fill="#932016" transform="translate(185,299)"/>
<path d="M0 0 C0.97608217 2.92824652 1.08226668 4.95613276 1 8 C0.01 8.33 -0.98 8.66 -2 9 C-2.33 9.66 -2.66 10.32 -3 11 C-2.69078116 9.54096742 -2.37751201 8.08279278 -2.0625 6.625 C-1.88847656 5.81289062 -1.71445313 5.00078125 -1.53515625 4.1640625 C-1 2 -1 2 0 0 Z " fill="#611C17" transform="translate(223,224)"/>
<path d="M0 0 C1.8125 0.1875 1.8125 0.1875 4 1 C5.8125 3.4375 5.8125 3.4375 7 6 C6.67 6.66 6.34 7.32 6 8 C3.32488946 5.41118335 1.65245796 3.30491592 0 0 Z " fill="#B02F23" transform="translate(297,214)"/>
<path d="M0 0 C0.33 1.32 0.66 2.64 1 4 C-0.98 4.99 -0.98 4.99 -3 6 C-3.33 5.01 -3.66 4.02 -4 3 C-2.68 2.01 -1.36 1.02 0 0 Z " fill="#9E261B" transform="translate(355,510)"/>
<path d="M0 0 C0.66 0.33 1.32 0.66 2 1 C2.125 3.875 2.125 3.875 2 7 C1.34 7.66 0.68 8.32 0 9 C-1.125 3.375 -1.125 3.375 0 0 Z " fill="#862119" transform="translate(395,461)"/>
</svg>
